<svg width="24" height="20" viewBox="0 0 24 20" fill="none" xmlns="http://www.w3.org/2000/svg">
<g filter="url(#filter0_d)">
<path d="M18.5 0H5.50001C4.67285 0 4 0.672853 4 1.50001V10.5C4 11.3271 4.67285 12 5.50001 12H18.5C19.3271 12 20 11.3271 20 10.5V1.50001C20 0.672853 19.3271 0 18.5 0ZM18.5 0.999994C18.5679 0.999994 18.6325 1.01409 18.6916 1.0387L12 6.83838L5.30833 1.0387C5.36742 1.01412 5.43204 0.999994 5.49998 0.999994H18.5ZM18.5 11H5.50001C5.22414 11 5 10.7759 5 10.5V2.09521L11.6724 7.87792C11.7666 7.95944 11.8833 7.99999 12 7.99999C12.1167 7.99999 12.2334 7.95948 12.3276 7.87792L19 2.09521V10.5C19 10.7759 18.7759 11 18.5 11Z" fill="#2196F3"/>
<path d="M19.0191 1.41654L19.4073 1.08005C19.4074 1.08016 19.4075 1.08028 19.4075 1.08039L18.6725 1.71736L12.0005 7.49982L12.0001 7.49996L12.3275 7.21622L19.0191 1.41654ZM11.6725 7.21622L11.9999 7.49994L11.9995 7.49976L5.32746 1.71736L4.59249 1.08039C4.59254 1.08029 4.59259 1.08018 4.59264 1.08007L4.98086 1.41654L11.6725 7.21622ZM5.11627 0.577065L5.09288 0.586794C5.21086 0.533936 5.34083 0.503299 5.47744 0.500252C5.34785 0.5032 5.22593 0.531438 5.11627 0.577065ZM18.908 0.587175L18.8839 0.577157C18.7749 0.531733 18.654 0.503655 18.5257 0.500328C18.6615 0.503784 18.7907 0.534495 18.908 0.587175ZM5.50001 11.5C5.46662 11.5 5.43361 11.4984 5.40105 11.4951C5.4336 11.4983 5.46662 11.5 5.50001 11.5H18.5C19.052 11.5 19.4999 11.052 19.5 10.5001C19.5 11.051 19.051 11.5 18.5 11.5H5.50001ZM18.5 1.49999L18.4993 1.50025L18.4995 1.49999H18.5ZM5.49998 1.49999H5.50026L5.5004 1.50034L5.49998 1.49999Z" stroke="black"/>
</g>
<defs>
<filter id="filter0_d" x="0" y="0" width="24" height="20" filterUnits="userSpaceOnUse" color-interpolation-filters="sRGB">
<feFlood flood-opacity="0" result="BackgroundImageFix"/>
<feColorMatrix in="SourceAlpha" type="matrix" values="0 0 0 0 0 0 0 0 0 0 0 0 0 0 0 0 0 0 127 0" result="hardAlpha"/>
<feOffset dy="4"/>
<feGaussianBlur stdDeviation="2"/>
<feComposite in2="hardAlpha" operator="out"/>
<feColorMatrix type="matrix" values="0 0 0 0 0 0 0 0 0 0 0 0 0 0 0 0 0 0 0.25 0"/>
<feBlend mode="normal" in2="BackgroundImageFix" result="effect1_dropShadow"/>
<feBlend mode="normal" in="SourceGraphic" in2="effect1_dropShadow" result="shape"/>
</filter>
</defs>
</svg>
